<svg width="480" height="360" viewBox="0 0 480 360" fill="none" xmlns="http://www.w3.org/2000/svg">
<g clip-path="url(#clip0_254_141)">
<path d="M480.39 -0.139893H-0.130005V360.35H480.39V-0.139893Z" fill="#2E0044"></path>
<path opacity="0.39" d="M411.86 64.7999C428.672 64.7999 442.3 51.1715 442.3 34.3599C442.3 17.5484 428.672 3.91992 411.86 3.91992C395.048 3.91992 381.42 17.5484 381.42 34.3599C381.42 51.1715 395.048 64.7999 411.86 64.7999Z" fill="#7C32EA"></path>
<path opacity="0.39" d="M74.5 295C57.6884 295 44.06 308.628 44.06 325.44C44.06 342.251 57.6884 355.88 74.5 355.88C91.3115 355.88 104.94 342.251 104.94 325.44C104.94 308.628 91.3115 295 74.5 295Z" fill="#EAAA32"></path>
<path d="M411.86 58.67C425.286 58.67 436.17 47.7861 436.17 34.3601C436.17 20.934 425.286 10.05 411.86 10.05C398.434 10.05 387.55 20.934 387.55 34.3601C387.55 47.7861 398.434 58.67 411.86 58.67Z" fill="#9517CC"></path>
<path d="M74.5 301.13C61.074 301.13 50.19 312.014 50.19 325.44C50.19 338.866 61.074 349.75 74.5 349.75C87.926 349.75 98.81 338.866 98.81 325.44C98.81 312.014 87.926 301.13 74.5 301.13Z" fill="#CC8717"></path>
<path d="M408.238 23.1323C408.248 22.3261 407.549 21.6636 406.676 21.6526C405.804 21.6416 405.088 22.2863 405.078 23.0926C405.068 23.8989 405.767 24.5614 406.64 24.5723C407.512 24.5833 408.228 23.9386 408.238 23.1323Z" fill="#B834F9"></path>
<path d="M78.1222 336.668C78.1121 337.474 78.8112 338.136 79.6837 338.147C80.5563 338.158 81.2718 337.514 81.2819 336.707C81.2921 335.901 80.593 335.239 79.7204 335.228C78.8479 335.217 78.1323 335.861 78.1222 336.668Z" fill="#F9AD34"></path>
<path d="M412.17 10.0501C408.398 10.0022 404.667 10.8329 401.272 12.4766C397.877 14.1203 394.912 16.5318 392.61 19.5201C398.998 22.4853 405.958 24.0145 413 24.0001C419.49 24.1621 425.947 23.0371 432 20.6901C429.797 17.4491 426.844 14.7889 423.391 12.9362C419.938 11.0835 416.088 10.0933 412.17 10.0501Z" fill="#A313D1"></path>
<path d="M74.19 349.75C77.9616 349.798 81.6926 348.967 85.0876 347.323C88.4826 345.68 91.4483 343.268 93.75 340.28C87.3623 337.315 80.4024 335.786 73.36 335.8C66.8702 335.638 60.4126 336.763 54.36 339.11C56.5625 342.351 59.5162 345.011 62.9691 346.864C66.422 348.717 70.2717 349.707 74.19 349.75Z" fill="#D15C13"></path>
<path d="M392.65 19.48C389.276 23.8336 387.482 29.2046 387.562 34.712C387.642 40.2195 389.591 45.5362 393.09 49.79L430.25 50.25C433.843 46.0874 435.918 40.8292 436.136 35.3347C436.354 29.8401 434.702 24.4341 431.45 20L392.65 19.48Z" fill="#B834F9"></path>
<path d="M93.71 340.32C97.0841 335.966 98.8783 330.595 98.7983 325.088C98.7184 319.58 96.769 314.264 93.27 310.01L56.11 309.55C52.5168 313.712 50.4417 318.971 50.2237 324.465C50.0058 329.96 51.6578 335.366 54.91 339.8L93.71 340.32Z" fill="#F9AD34"></path>
<path opacity="0.53" d="M412.17 10.0499C407.206 9.9849 402.341 11.4411 398.23 14.2228C394.118 17.0044 390.956 20.9782 389.17 25.6099L435.08 27.1699C433.558 22.2629 430.522 17.9636 426.406 14.8882C422.291 11.8128 417.307 10.1192 412.17 10.0499Z" fill="#AB19D8"></path>
<path opacity="0.53" d="M74.1899 349.75C79.1538 349.815 84.0186 348.359 88.1303 345.577C92.242 342.795 95.4036 338.822 97.1899 334.19L51.28 332.63C52.802 337.537 55.8383 341.836 59.9538 344.912C64.0693 347.987 69.0528 349.681 74.1899 349.75Z" fill="#CDAD73"></path>
<path d="M412.17 10.0499C407.862 9.99744 403.617 11.09 399.869 13.216C396.121 15.3419 393.005 18.425 390.84 22.1499L433.61 23.4999C431.617 19.5047 428.561 16.1359 424.779 13.7632C420.997 11.3906 416.634 10.1058 412.17 10.0499Z" fill="#9517CC"></path>
<path d="M74.19 349.75C78.4983 349.803 82.7434 348.71 86.491 346.584C90.2386 344.458 93.3545 341.375 95.52 337.65L52.75 336.3C54.7432 340.295 57.7986 343.664 61.5807 346.037C65.3629 348.409 69.7256 349.694 74.19 349.75Z" fill="#CC8717"></path>
<path d="M388 29.6201C387.34 32.973 387.388 36.4267 388.14 39.7601C388.14 39.7601 401.45 40.0201 410.57 29.9001L388 29.6201Z" fill="#A313D1"></path>
<path d="M98.3599 330.18C99.0198 326.827 98.9721 323.373 98.2199 320.04C98.2199 320.04 84.9099 319.78 75.7899 329.9L98.3599 330.18Z" fill="#D15C13"></path>
<path opacity="0.53" d="M420.27 40.3501C422.68 44.1501 426.53 46.8001 431.75 48.3501C433.415 45.9846 434.641 43.3392 435.37 40.5401L420.27 40.3501Z" fill="#AB19D8"></path>
<path opacity="0.53" d="M66.09 319.45C63.68 315.65 59.83 313 54.61 311.45C52.9453 313.815 51.7192 316.461 50.99 319.26L66.09 319.45Z" fill="#CDAD73"></path>
<path d="M431.48 33.2299C432.115 33.2299 432.63 32.7151 432.63 32.0799C432.63 31.4448 432.115 30.9299 431.48 30.9299C430.845 30.9299 430.33 31.4448 430.33 32.0799C430.33 32.7151 430.845 33.2299 431.48 33.2299Z" fill="#EC9BFF"></path>
<path d="M54.88 326.57C54.2449 326.57 53.73 327.085 53.73 327.72C53.73 328.355 54.2449 328.87 54.88 328.87C55.5151 328.87 56.03 328.355 56.03 327.72C56.03 327.085 55.5151 326.57 54.88 326.57Z" fill="#EC9BFF"></path>
<path d="M418.35 21.53C418.985 21.53 419.5 21.0151 419.5 20.38C419.5 19.7449 418.985 19.23 418.35 19.23C417.715 19.23 417.2 19.7449 417.2 20.38C417.2 21.0151 417.715 21.53 418.35 21.53Z" fill="#EC9BFF"></path>
<path d="M68.01 338.27C67.3749 338.27 66.86 338.785 66.86 339.42C66.86 340.055 67.3749 340.57 68.01 340.57C68.6451 340.57 69.16 340.055 69.16 339.42C69.16 338.785 68.6451 338.27 68.01 338.27Z" fill="#EC9BFF"></path>
<path d="M418.26 32.1499C418.211 32.5041 418.238 32.8647 418.339 33.2076C418.44 33.5506 418.613 33.8682 418.846 34.1392C419.079 34.4102 419.368 34.6285 419.692 34.7795C420.016 34.9305 420.368 35.0108 420.726 35.0151C421.084 35.0194 421.438 34.9476 421.765 34.8044C422.093 34.6612 422.387 34.4499 422.626 34.1845C422.866 33.9192 423.046 33.6059 423.156 33.2654C423.265 32.925 423.3 32.5652 423.26 32.2099L418.26 32.1499Z" fill="#A313D1"></path>
<path d="M68.1 327.65C68.149 327.296 68.1221 326.935 68.021 326.592C67.9199 326.249 67.747 325.932 67.5138 325.661C67.2805 325.39 66.9923 325.171 66.6682 325.02C66.3441 324.869 65.9916 324.789 65.634 324.785C65.2765 324.78 64.9221 324.852 64.5945 324.995C64.2669 325.139 63.9735 325.35 63.7338 325.615C63.4941 325.881 63.3136 326.194 63.2043 326.534C63.0951 326.875 63.0595 327.235 63.1 327.59L68.1 327.65Z" fill="#D15C13"></path>
<path d="M128.24 30.93C133.332 30.93 137.46 26.8021 137.46 21.71C137.46 16.6179 133.332 12.49 128.24 12.49C123.148 12.49 119.02 16.6179 119.02 21.71C119.02 26.8021 123.148 30.93 128.24 30.93Z" fill="#BF9373"></path>
<path d="M358.12 328.87C353.028 328.87 348.9 332.998 348.9 338.09C348.9 343.182 353.028 347.31 358.12 347.31C363.212 347.31 367.34 343.182 367.34 338.09C367.34 332.998 363.212 328.87 358.12 328.87Z" fill="#BF9373"></path>
<path d="M214.79 11.5001C216.358 11.5001 217.63 10.2286 217.63 8.66007C217.63 7.09158 216.358 5.82007 214.79 5.82007C213.222 5.82007 211.95 7.09158 211.95 8.66007C211.95 10.2286 213.222 11.5001 214.79 11.5001Z" fill="#6B1B89"></path>
<path d="M271.57 348.3C270.001 348.3 268.73 349.571 268.73 351.14C268.73 352.708 270.001 353.98 271.57 353.98C273.138 353.98 274.41 352.708 274.41 351.14C274.41 349.571 273.138 348.3 271.57 348.3Z" fill="#6B1B89"></path>
<path d="M159.13 35.5699C160.698 35.5699 161.97 34.2984 161.97 32.7299C161.97 31.1614 160.698 29.8899 159.13 29.8899C157.562 29.8899 156.29 31.1614 156.29 32.7299C156.29 34.2984 157.562 35.5699 159.13 35.5699Z" fill="#6B1B89"></path>
<path d="M327.23 324.23C325.661 324.23 324.39 325.502 324.39 327.07C324.39 328.639 325.661 329.91 327.23 329.91C328.798 329.91 330.07 328.639 330.07 327.07C330.07 325.502 328.798 324.23 327.23 324.23Z" fill="#6B1B89"></path>
<path d="M17.87 20.3099C19.4385 20.3099 20.71 19.0384 20.71 17.4699C20.71 15.9014 19.4385 14.6299 17.87 14.6299C16.3015 14.6299 15.03 15.9014 15.03 17.4699C15.03 19.0384 16.3015 20.3099 17.87 20.3099Z" fill="#6B1B89"></path>
<path d="M468.49 339.49C466.921 339.49 465.65 340.762 465.65 342.33C465.65 343.899 466.921 345.17 468.49 345.17C470.058 345.17 471.33 343.899 471.33 342.33C471.33 340.762 470.058 339.49 468.49 339.49Z" fill="#6B1B89"></path>
<path d="M297.55 34.39C299.118 34.39 300.39 33.1184 300.39 31.55C300.39 29.9815 299.118 28.71 297.55 28.71C295.981 28.71 294.71 29.9815 294.71 31.55C294.71 33.1184 295.981 34.39 297.55 34.39Z" fill="#6B1B89"></path>
<path d="M188.81 325.41C187.242 325.41 185.97 326.681 185.97 328.25C185.97 329.818 187.242 331.09 188.81 331.09C190.379 331.09 191.65 329.818 191.65 328.25C191.65 326.681 190.379 325.41 188.81 325.41Z" fill="#6B1B89"></path>
<path d="M363.78 16.0999C365.348 16.0999 366.62 14.8284 366.62 13.2599C366.62 11.6914 365.348 10.4199 363.78 10.4199C362.212 10.4199 360.94 11.6914 360.94 13.2599C360.94 14.8284 362.212 16.0999 363.78 16.0999Z" fill="#6B1B89"></path>
<path d="M122.58 343.7C121.011 343.7 119.74 344.971 119.74 346.54C119.74 348.108 121.011 349.38 122.58 349.38C124.148 349.38 125.42 348.108 125.42 346.54C125.42 344.971 124.148 343.7 122.58 343.7Z" fill="#6B1B89"></path>
<path d="M465.52 36.8399C467.088 36.8399 468.36 35.5684 468.36 33.9999C468.36 32.4314 467.088 31.1599 465.52 31.1599C463.952 31.1599 462.68 32.4314 462.68 33.9999C462.68 35.5684 463.952 36.8399 465.52 36.8399Z" fill="#6B1B89"></path>
<path d="M20.84 322.96C19.2715 322.96 18 324.232 18 325.8C18 327.369 19.2715 328.64 20.84 328.64C22.4085 328.64 23.68 327.369 23.68 325.8C23.68 324.232 22.4085 322.96 20.84 322.96Z" fill="#6B1B89"></path>
<path d="M335.18 21.55C333.78 25.98 331.18 28.79 327.01 29.55C331.18 30.28 333.77 33.1 335.15 37.55C336.54 33.13 339.15 30.32 343.32 29.55C339.16 28.8 336.56 26 335.18 21.55Z" fill="#C7C961"></path>
<path d="M151.18 338.25C152.58 333.82 155.18 331.01 159.35 330.25C155.18 329.52 152.59 326.7 151.21 322.25C149.82 326.67 147.21 329.48 143.04 330.25C147.2 331 149.8 333.8 151.18 338.25Z" fill="#C7C961"></path>
<path d="M190.35 8.6499C188.95 13.0799 186.35 15.8899 182.18 16.6499C186.35 17.3899 188.94 20.1999 190.33 24.6499C191.73 20.2299 194.33 17.4199 198.5 16.6999C194.33 15.8999 191.74 13.0799 190.35 8.6499Z" fill="#C7C961"></path>
<path d="M296.01 351.15C297.41 346.72 300.01 343.91 304.18 343.15C300.01 342.41 297.42 339.6 296.03 335.15C294.63 339.57 292.03 342.38 287.86 343.1C292.03 343.9 294.62 346.72 296.01 351.15Z" fill="#C7C961"></path>
<mask id="mask0_254_141" style="mask-type:luminance" maskUnits="userSpaceOnUse" x="23" y="-1" width="86" height="39">
<path d="M108.68 -0.0400391H23.64V37.53H108.68V-0.0400391Z" fill="white"></path>
</mask>
<g mask="url(#mask0_254_141)">
<path opacity="0.39" d="M62.95 31.9799C81.0484 31.9799 95.72 17.3083 95.72 -0.790058C95.72 -18.8884 81.0484 -33.5601 62.95 -33.5601C44.8517 -33.5601 30.18 -18.8884 30.18 -0.790058C30.18 17.3083 44.8517 31.9799 62.95 31.9799Z" fill="#7C32EA"></path>
<path d="M62.95 22.2499C75.6747 22.2499 85.99 11.9346 85.99 -0.790079C85.99 -13.5147 75.6747 -23.8301 62.95 -23.8301C50.2254 -23.8301 39.91 -13.5147 39.91 -0.790079C39.91 11.9346 50.2254 22.2499 62.95 22.2499Z" fill="#B5F2FF"></path>
<path d="M63 26.42C55.7781 26.4227 48.8504 23.5583 43.739 18.4563C38.6276 13.3543 35.7506 6.43195 35.74 -0.789999C35.7506 -8.01195 38.6276 -14.9343 43.739 -20.0363C48.8504 -25.1383 55.7781 -28.0027 63 -28C70.2064 -27.9788 77.1109 -25.104 82.2029 -20.0046C87.2948 -14.9052 90.1595 -7.99638 90.17 -0.789999C90.1595 6.41638 87.2948 13.3252 82.2029 18.4246C77.1109 23.524 70.2064 26.3989 63 26.42ZM63 -22.35C60.1661 -22.3526 57.3594 -21.797 54.7402 -20.715C52.121 -19.6329 49.7405 -18.0455 47.7348 -16.0435C45.729 -14.0415 44.1373 -11.664 43.0504 -9.04679C41.9634 -6.42958 41.4026 -3.62393 41.4 -0.789999C41.408 4.93164 43.6878 10.4159 47.7383 14.457C51.7888 18.4982 57.2784 20.7653 63 20.76C68.7061 20.7415 74.1725 18.4638 78.2036 14.4253C82.2346 10.3867 84.5021 4.91607 84.51 -0.789999C84.5048 -6.4978 82.2384 -11.971 78.2071 -16.0118C74.1758 -20.0525 68.7078 -22.3315 63 -22.35Z" fill="#6BE5FF"></path>
<path d="M48 -8.55008C46.2972 -1.778 47.1704 5.38515 50.45 11.5499C51.5629 13.8481 53.2637 15.8111 55.38 17.2399C56.01 17.6299 56.87 17.9199 57.38 17.4499C57.89 16.9799 57.75 15.9299 57.57 15.1299C57.39 14.3299 57.57 13.1299 58.43 13.1299C58.6766 13.1443 58.9163 13.2162 59.13 13.3399L62.65 15.0899C63.0555 15.352 63.5421 15.4586 64.02 15.3899C64.86 15.1499 65.02 13.9799 64.7 13.1499C63.7 10.0699 60.33 8.43992 58.7 5.66992C56.7 2.42992 57.48 -1.68008 56.99 -5.43008C56.89 -6.23008 56.56 -7.20008 55.76 -7.33008C54.96 -7.46008 54.4 -6.73008 54.11 -6.02008C53.9367 -5.28475 53.5943 -4.59996 53.11 -4.02008C53.0275 -5.42285 52.5452 -6.77269 51.72 -7.91008C50.79 -8.91008 48.94 -9.30008 48.04 -8.23008" fill="#CCF9FF"></path>
<path d="M64.69 -5.00017C64.3602 -5.36923 63.9178 -5.61922 63.4315 -5.71142C62.9452 -5.80362 62.4421 -5.73288 62 -5.51017C61.5653 -5.27236 61.2221 -4.89653 61.0248 -4.44201C60.8274 -3.9875 60.787 -3.48018 60.91 -3.00017C61.2979 -2.1512 61.8444 -1.38413 62.52 -0.74017C63.73 0.76983 64.05 2.76983 64.52 4.63983C64.99 6.50983 65.84 8.48983 67.52 9.35983C67.8244 9.53008 68.1723 9.60662 68.52 9.57983C69.39 9.46983 69.78 8.47983 70.16 7.68983C71.16 5.57983 73.16 4.14983 74.86 2.49983C76.4937 0.885953 77.8457 -0.98996 78.86 -3.05017C79.86 -5.05017 80.49 -7.75017 79.08 -9.56017C77.67 -11.3702 74.89 -11.4302 72.84 -10.4602C70.79 -9.49017 69.22 -7.74017 67.51 -6.24017C66.41 -5.24017 64.71 -4.40017 63.59 -5.35017" fill="#CCF9FF"></path>
</g>
<mask id="mask1_254_141" style="mask-type:luminance" maskUnits="userSpaceOnUse" x="377" y="322" width="86" height="38">
<path d="M377.68 359.84L462.72 359.84L462.72 322.27L377.68 322.27L377.68 359.84Z" fill="white"></path>
</mask>
<g mask="url(#mask1_254_141)">
<path opacity="0.39" d="M423.41 327.82C405.312 327.82 390.64 342.492 390.64 360.59C390.64 378.689 405.312 393.36 423.41 393.36C441.508 393.36 456.18 378.689 456.18 360.59C456.18 342.492 441.508 327.82 423.41 327.82Z" fill="#EAAA32"></path>
<path d="M423.41 337.55C410.685 337.55 400.37 347.866 400.37 360.59C400.37 373.315 410.685 383.63 423.41 383.63C436.135 383.63 446.45 373.315 446.45 360.59C446.45 347.866 436.135 337.55 423.41 337.55Z" fill="#B5F2FF"></path>
<path d="M423.36 333.38C430.582 333.378 437.51 336.242 442.621 341.344C447.732 346.446 450.609 353.368 450.62 360.59C450.609 367.812 447.732 374.735 442.621 379.837C437.51 384.939 430.582 387.803 423.36 387.8C416.154 387.779 409.249 384.904 404.157 379.805C399.065 374.705 396.201 367.797 396.19 360.59C396.201 353.384 399.065 346.475 404.157 341.376C409.249 336.276 416.154 333.401 423.36 333.38ZM423.36 382.15C426.194 382.153 429.001 381.597 431.62 380.515C434.239 379.433 436.619 377.846 438.625 375.844C440.631 373.842 442.223 371.464 443.31 368.847C444.397 366.23 444.957 363.424 444.96 360.59C444.952 354.869 442.672 349.384 438.622 345.343C434.571 341.302 429.082 339.035 423.36 339.04C417.654 339.059 412.188 341.336 408.156 345.375C404.125 349.414 401.858 354.884 401.85 360.59C401.855 366.298 404.122 371.771 408.153 375.812C412.184 379.853 417.652 382.132 423.36 382.15Z" fill="#6BE5FF"></path>
<path d="M438.36 368.35C440.063 361.578 439.19 354.415 435.91 348.25C434.797 345.952 433.096 343.989 430.98 342.56C430.35 342.17 429.49 341.88 428.98 342.35C428.47 342.82 428.61 343.87 428.79 344.67C428.97 345.47 428.79 346.67 427.93 346.67C427.683 346.656 427.444 346.584 427.23 346.46L423.71 344.71C423.305 344.448 422.818 344.342 422.34 344.41C421.5 344.65 421.34 345.82 421.66 346.65C422.66 349.73 426.03 351.36 427.66 354.13C429.66 357.37 428.88 361.48 429.37 365.23C429.47 366.03 429.8 367 430.6 367.13C431.4 367.26 431.96 366.53 432.25 365.82C432.423 365.085 432.766 364.4 433.25 363.82C433.333 365.223 433.815 366.573 434.64 367.71C435.57 368.71 437.42 369.1 438.32 368.03" fill="#CCF9FF"></path>
<path d="M421.67 364.8C422 365.17 422.442 365.42 422.928 365.512C423.415 365.604 423.918 365.533 424.36 365.31C424.795 365.073 425.138 364.697 425.335 364.242C425.533 363.788 425.573 363.28 425.45 362.8C425.062 361.951 424.516 361.184 423.84 360.54C422.63 359.03 422.31 357.03 421.84 355.16C421.37 353.29 420.52 351.31 418.84 350.44C418.536 350.27 418.188 350.194 417.84 350.22C416.97 350.33 416.58 351.32 416.2 352.11C415.2 354.22 413.2 355.65 411.5 357.3C409.866 358.914 408.514 360.79 407.5 362.85C406.5 364.85 405.87 367.55 407.28 369.36C408.69 371.17 411.47 371.23 413.52 370.26C415.57 369.29 417.14 367.54 418.85 366.04C419.95 365.04 421.65 364.2 422.77 365.15" fill="#CCF9FF"></path>
</g>
</g>
<defs>
<clipPath id="clip0_254_141">
<rect width="480" height="360" fill="white"></rect>
</clipPath>
</defs>
</svg>
