<svg version="1.1" xmlns="http://www.w3.org/2000/svg" xmlns:xlink="http://www.w3.org/1999/xlink" width="193.91706" height="104.7885" viewBox="0,0,193.91706,104.7885"><g transform="translate(-142.33451,-125.21238)"><g data-paper-data="{&quot;isPaintingLayer&quot;:true}" fill-rule="nonzero" stroke="none" stroke-width="1" stroke-linecap="butt" stroke-linejoin="miter" stroke-miterlimit="10" stroke-dasharray="" stroke-dashoffset="0" style="mix-blend-mode: normal"><path d="M283.81329,173.50098l22.09478,-22.79445l1.84123,10.08995l28.50227,-15.76095l-32.23997,26.55056c-0.38666,-3.25898 -0.79173,-6.53637 -1.17839,-9.79535z" fill="#ff9696"></path><path d="M170.97178,196.61209l-0.36105,7.08806l-28.27622,-20.20001l24.70368,12.18082l0.6651,-7.96219l18.69879,16.0954z" fill="#ff9696"></path><path d="M190.06425,144.54219l-2.34659,5.85803l-18.01302,-25.18784l17.32086,17.35463l2.86993,-6.49954l11.07455,18.90776z" fill="#ff9696"></path><g><path d="M267.7,191.5l-12.6,-8.2l1.7,-2.8l9.6,6.2l5.4,-11.8l2.9,1.5z" fill="#70c4e8"></path><path d="M250.4,181.9c0,-3.31371 2.5072,-6 5.6,-6c3.0928,0 5.6,2.68629 5.6,6c0,3.31371 -2.5072,6 -5.6,6c-3.09279,0 -5.6,-2.68629 -5.6,-6z" fill="#75d3d2"></path><path d="M284.6,184.6c0.7,-0.1 2.9,-0.7 3.8,4.3c0.9,5 0.1,13.7 -0.6,13.9c-0.7,0.1 -4.4,-7.7 -5.2,-12.8c-0.8,-5.1 1.3,-5.2 2,-5.4z" fill="#112c4f"></path><path d="M266.91484,193.30294c-2.20781,-0.07512 -3.93366,-2.01529 -3.85479,-4.33349c0.07887,-2.31821 1.9326,-4.13658 4.14042,-4.06147c2.20781,0.07512 3.93365,2.01528 3.85478,4.33349c-0.07887,2.31821 -1.9326,4.13659 -4.14041,4.06147z" fill="#70c4e8"></path><path d="M266.99644,190.90438c-0.93832,-0.03193 -1.67158,-0.86321 -1.63778,-1.85673c0.0338,-0.99352 0.82187,-1.77304 1.76019,-1.74111c0.93832,0.03193 1.67157,0.86321 1.63777,1.85672c-0.0338,0.99352 -0.82187,1.77304 -1.76018,1.74112z" fill="#fff8b6"></path><path d="M265.8,172c3,-1.7 6.1,-3 8.8,-3.2c1.6,-0.1 3.2,0.6 4.3,1.8c5.6,6.2 9,14.3 11,20.9c0.4,1 0,2.2 -0.9,2.9c-0.9,0.6 -2,1.1 -3.1,1.5c-1,0.3 -2.1,-0.1 -2.7,-0.9c-6.6,-9 -12.4,-15.1 -17.7,-19.3c-1.3,-1 -1.1,-3 0.3,-3.7z" fill="#0b80b2"></path><path d="M285.00293,191.96682c-0.03582,-0.60648 0.42681,-1.12716 1.03329,-1.16298c0.60648,-0.03582 1.12716,0.4268 1.16297,1.03328c0.03582,0.60648 -0.42681,1.12716 -1.03328,1.16298c-0.60648,0.03582 -1.12716,-0.4268 -1.16298,-1.03328z" fill="#70c4e8"></path></g><g><path d="M197.9,189.9c-1.9,4.7 -7,11.6 -7.7,11.3c-0.7,-0.3 0.4,-9 2.3,-13.7c1.9,-4.7 3.9,-3.6 4.6,-3.3c0.6,0.2 2.7,0.9 0.8,5.7z" fill="#112c4f"></path><path d="M219.2,178.2c-6.4,3.2 -13.7,8.4 -22.4,16.4c-0.8,0.8 -2,0.9 -3,0.4c-1.1,-0.6 -2.1,-1.4 -2.9,-2.3c-0.8,-0.9 -1,-2.2 -0.4,-3.3c3.4,-6.5 8.5,-14.4 15.6,-19.6c1.4,-1.1 3.2,-1.4 4.9,-0.9c2.7,0.8 5.8,2.8 8.6,5.2c1.4,1.1 1.1,3.3 -0.4,4.1z" fill="#0b80b2"></path><path d="M193.10088,190.74297c-0.02274,-0.60709 0.45096,-1.11767 1.05805,-1.14041c0.60709,-0.02274 1.11767,0.45096 1.14041,1.05805c0.02274,0.60709 -0.45097,1.11767 -1.05806,1.14041c-0.60709,0.02274 -1.11766,-0.45096 -1.1404,-1.05805z" fill="#70c4e8"></path></g><path d="M274.6,179.1c0,5 -2,9.5 -5.1,12.7c-2.8,2.9 -6.5,4.8 -10.7,5.1c-0.5,0 -1,0.1 -1.5,0.1l-25.6,-0.3c-4.8,-0.1 -9.2,-2.2 -12.3,-5.7c-2.9,-3.3 -4.7,-7.7 -4.6,-12.6c0,-1 0.1,-2 0.2,-3c0,-0.4 0.1,-0.7 0.1,-1.1c0.9,-7.1 4.1,-13.4 8.7,-18.2c5.5,-5.7 13,-9.1 21.2,-9c8.2,0.1 15.7,3.7 21.1,9.5c2.8,3 5.1,6.7 6.5,10.7c0.1,0.3 0.2,0.7 0.4,1c1.1,3.4 1.6,7 1.6,10.8z" fill="#70c4e8"></path><path d="M258.8,196.9c-0.5,0 -1,0.1 -1.5,0.1l-16.1,-0.2v0c0,-5.1 4,-9.2 8.9,-9.2c4.9,0 8.8,4.2 8.7,9.3z" fill="#0b80b2"></path><path d="M235.2,196.6v0h-3.5c-4.8,-0.1 -9.2,-2.2 -12.3,-5.7c1.6,-2.3 4.2,-3.7 7.1,-3.7c4.9,0.1 8.7,4.3 8.7,9.4z" fill="#0b80b2"></path><path d="M238.5,196.7h-1l0.4,-38.7h0.9z" fill="#0b80b2"></path><path d="M272.9,168.3c-9.7,8.3 -21.7,12.8 -34.3,12.8c-0.2,0 -0.3,0 -0.5,0c-0.2,0 -0.3,0 -0.5,0c-8,-0.2 -15.7,-2.1 -22.7,-5.7c0,-0.4 0.1,-0.7 0.1,-1.1c6.8,3.6 14.5,5.6 22.6,5.8c0.2,0 0.3,0 0.5,0c0.2,0 0.3,0 0.5,0c12.9,0 24.7,-4.8 34,-12.8c0.1,0.4 0.2,0.7 0.3,1z" fill="#0b80b2"></path><g fill="#ff9696"><path d="M232.1,180.2c0,-3.4794 2.68629,-6.3 6,-6.3c3.31371,0 6,2.8206 6,6.3c0,3.4794 -2.68629,6.3 -6,6.3c-3.31371,0 -6,-2.82061 -6,-6.3z"></path><path d="M238.1,187c-3.6,0 -6.4,-3.1 -6.4,-6.9c0,-3.7 3,-6.8 6.5,-6.7c3.5,0.1 6.4,3.1 6.4,6.9c0,3.7 -3,6.7 -6.5,6.7zM238.2,174.4c-3,0 -5.5,2.5 -5.5,5.7c0,3.2 2.4,5.8 5.4,5.8c3,0 5.5,-2.5 5.5,-5.7c0.1,-3.1 -2.4,-5.7 -5.4,-5.8z"></path></g><path d="M245.5,176.4c0,-0.55229 0.44771,-1 1,-1c0.55229,0 1,0.44771 1,1c0,0.55229 -0.44771,1 -1,1c-0.55229,0 -1,-0.44771 -1,-1z" fill="#0b80b2"></path><path d="M245.5,183.6c0,-0.55229 0.44771,-1 1,-1c0.55229,0 1,0.44771 1,1c0,0.55229 -0.44771,1 -1,1c-0.55229,0 -1,-0.44771 -1,-1z" fill="#0b80b2"></path><path d="M228.5,176.2c0,-0.55229 0.44771,-1 1,-1c0.55229,0 1,0.44771 1,1c0,0.55229 -0.44771,1 -1,1c-0.55229,0 -1,-0.44771 -1,-1z" fill="#0b80b2"></path><path d="M228.5,183.4c0,-0.55229 0.44771,-1 1,-1c0.55229,0 1,0.44771 1,1c0,0.55229 -0.44771,1 -1,1c-0.55229,0 -1,-0.44771 -1,-1z" fill="#0b80b2"></path><path d="M220.2,210.8l-12.8,-10l1.9,-2.7l10,7.7l5.8,-10.1l2.7,1.7z" fill="#70c4e8"></path><path d="M220.8,196.5c0,-3.31371 2.5072,-6 5.6,-6c3.09279,0 5.6,2.68629 5.6,6c0,3.31371 -2.5072,6 -5.6,6c-3.09279,0 -5.6,-2.68629 -5.6,-6z" fill="#70c4e8"></path><path d="M203.4,215.6c-0.2,5.1 -2.8,13.4 -3.5,13.4c-0.7,0 -2.6,-8.6 -2.4,-13.7c0.2,-5.1 2.4,-4.8 3.2,-4.8c0.7,0 2.9,-0.1 2.7,5.1z" fill="#112c4f"></path><path d="M219.5728,212.53891c-2.20715,-0.09127 -3.91871,-2.04397 -3.82288,-4.36148c0.09583,-2.31751 1.96278,-4.12223 4.16993,-4.03096c2.20715,0.09127 3.9187,2.04397 3.82287,4.36148c-0.09583,2.31751 -1.96277,4.12223 -4.16992,4.03096z" fill="#70c4e8"></path><path d="M219.67195,210.14107c-0.93804,-0.03879 -1.66518,-0.8754 -1.6241,-1.86862c0.04108,-0.99322 0.8348,-1.76693 1.77284,-1.72814c0.93804,0.03879 1.66518,0.87539 1.6241,1.86862c-0.04108,0.99322 -0.8348,1.76694 -1.77284,1.72815z" fill="#ff9696"></path><path d="M216.3,194.2c-1.5,2.2 -3,4.7 -4.5,7.5c-2.6,4.9 -5.2,10.9 -7.8,18.1c-0.3,0.7 -0.8,1.3 -1.4,1.6c-0.3,0.1 -0.7,0.2 -1,0.2c-1.3,0 -2.5,-0.2 -3.6,-0.5c0,0 0,0 -0.1,0c-1.1,-0.4 -1.9,-1.5 -1.9,-2.7c0.1,-4.7 0.5,-10.2 1.8,-15.7c0.1,-0.3 0.2,-0.7 0.3,-1.1c0.7,-2.8 1.7,-5.6 3,-8.3c0.8,-1.6 2.2,-2.9 3.9,-3.3c1,-0.2 2,-0.3 3.2,-0.4c0.3,0 0.6,0 1,0c1.9,0 3.8,0.3 5.8,0.7c1.5,0.4 2.3,2.5 1.3,3.9z" fill="#0b80b2"></path><path d="M209.1,189.7c-0.1,3.4 -1.1,6.2 -2.9,8.4c-2.4,2.9 -5.9,4.2 -8.4,4.7c0.1,-0.4 0.2,-0.8 0.3,-1.2c2.3,-0.5 5.3,-1.7 7.4,-4.2c1.7,-2 2.6,-4.6 2.7,-7.7c0.3,0 0.6,0 0.9,0z" fill="#70c4e8"></path><path d="M199.00147,217.84389c-0.02532,-0.60697 0.4462,-1.11954 1.05316,-1.14486c0.60697,-0.02532 1.11954,0.4462 1.14486,1.05317c0.02532,0.60697 -0.4462,1.11954 -1.05317,1.14486c-0.60697,0.02532 -1.11953,-0.4462 -1.14485,-1.05317z" fill="#70c4e8"></path><path d="M256,211.1l-7.3,-13.5l2.7,-1.6l5.6,10.2l10.1,-7.5l1.9,2.8z" fill="#70c4e8"></path><path d="M244.5,196.8c0,-3.31371 2.5072,-6 5.6,-6c3.09279,0 5.6,2.68629 5.6,6c0,3.31371 -2.5072,6 -5.6,6c-3.09279,0 -5.6,-2.68629 -5.6,-6z" fill="#70c4e8"></path><path d="M275.6,211.5c0.7,0 3,-0.3 3.2,4.8c0.2,5.1 -1.7,13.6 -2.4,13.7c-0.7,0.1 -3.3,-8.3 -3.5,-13.4c-0.2,-5.1 2,-5 2.7,-5.1z" fill="#112c4f"></path><path d="M252.50222,208.87348c-0.10205,-2.31727 1.6043,-4.27459 3.81123,-4.37178c2.20693,-0.09719 4.07872,1.70255 4.18077,4.01983c0.10205,2.31727 -1.60429,4.27458 -3.81122,4.37177c-2.20693,0.09719 -4.07873,-1.70255 -4.18078,-4.01982z" fill="#70c4e8"></path><path d="M254.79992,208.7723c-0.04373,-0.99312 0.68117,-1.83169 1.61911,-1.87299c0.93795,-0.0413 1.73375,0.73029 1.77749,1.72341c0.04374,0.99312 -0.68117,1.83168 -1.61911,1.87299c-0.93795,0.0413 -1.73376,-0.73029 -1.77749,-1.72341z" fill="#ff9696"></path><path d="M280.2,219.5c0,1.2 -0.7,2.3 -1.8,2.7c0,0 0,0 -0.1,0c-1.1,0.4 -2.3,0.5 -3.6,0.5c-0.4,0 -0.7,-0.1 -1,-0.2c-0.6,-0.3 -1.2,-0.9 -1.4,-1.6c-2.6,-7.3 -5.2,-13.2 -7.8,-18.2c-1.5,-2.8 -3,-5.3 -4.5,-7.5c-1,-1.4 -0.2,-3.5 1.4,-3.8c1.9,-0.4 3.9,-0.6 5.8,-0.7c0.3,0 0.6,0 1,0c1.1,0 2.2,0.2 3.2,0.4c1.7,0.4 3.1,1.6 3.9,3.3c1.3,2.7 2.2,5.5 2.9,8.3c0.1,0.4 0.2,0.7 0.3,1.1c1.2,5.5 1.6,11 1.7,15.7z" fill="#0b80b2"></path><path d="M278.5,203.8c-2.5,-0.5 -5.9,-1.7 -8.4,-4.7c-1.8,-2.2 -2.8,-5 -2.9,-8.4c0.3,0 0.6,0 1,0c0.1,3.1 1,5.7 2.7,7.7c2.1,2.5 5.1,3.7 7.4,4.3c0,0.4 0.1,0.7 0.2,1.1z" fill="#70c4e8"></path><path d="M274.99676,218.84352c-0.02672,-0.60691 0.4436,-1.12057 1.0505,-1.1473c0.6069,-0.02672 1.12057,0.4436 1.1473,1.05051c0.02672,0.60691 -0.44361,1.12057 -1.05051,1.14729c-0.6069,0.02672 -1.12056,-0.4436 -1.14729,-1.0505z" fill="#70c4e8"></path><g fill="#0b80b2"><g><g><path d="M248,139.2c-0.2,0 -0.4,-0.1 -0.5,-0.4c-1.3,-5.6 -6.6,-7.9 -6.6,-7.9c-0.2,-0.1 -0.3,-0.4 -0.2,-0.6c0,-0.3 0.3,-0.4 0.6,-0.3c0.2,0.1 5.8,2.5 7.2,8.6c0.1,0.3 -0.1,0.5 -0.4,0.6c-0.1,0 -0.1,0 -0.1,0z"></path></g><g><path d="M248.6,135.5c-0.2,0 -0.3,-0.1 -0.4,-0.3c-1.3,-2.7 -3.2,-3.8 -3.2,-3.8c-0.2,-0.1 -0.3,-0.4 -0.2,-0.6c0.1,-0.2 0.4,-0.3 0.6,-0.2c0.1,0.1 2.2,1.3 3.5,4.2c0.1,0.2 0,0.5 -0.2,0.6c0,0.1 -0.1,0.1 -0.1,0.1z"></path></g></g><g><g><path d="M246.4,162c-0.1,0 -0.2,0 -0.3,-0.1c-0.2,-0.2 -0.2,-0.5 0,-0.7c4.2,-4 3.4,-9.7 3.3,-9.7c0,-0.3 0.1,-0.5 0.4,-0.5c0.3,0 0.5,0.1 0.5,0.4c0,0.3 0.9,6.2 -3.6,10.6c0,0 -0.1,0 -0.3,0z"></path></g><g><path d="M250,160.6c-0.1,0 -0.2,0 -0.3,-0.1c-0.2,-0.1 -0.3,-0.4 -0.1,-0.6c1.6,-2.4 1.6,-4.6 1.6,-4.7c0,-0.3 0.2,-0.5 0.5,-0.5c0.3,0 0.5,0.2 0.5,0.4c0,0.1 0.1,2.5 -1.8,5.2c-0.1,0.2 -0.3,0.3 -0.4,0.3z"></path></g></g></g><g><path d="M245.9,141.2c0.1,0.4 0.3,0.8 0.4,1.2v0c0,0.1 0,0.1 0,0.2c0.2,0.7 0.3,1.3 0.3,2c0.6,6.7 -3.5,13.2 -10.3,15.5c-3.6,1.2 -7.4,1 -10.6,-0.4c-0.6,-0.2 -1.1,-0.5 -1.6,-0.8c-1,-0.6 -1.9,-1.2 -2.7,-2c-0.3,-0.2 -0.5,-0.5 -0.8,-0.8c-0.7,-0.7 -1.3,-1.5 -1.8,-2.3c-0.3,-0.5 -0.6,-1 -0.8,-1.5v0c-0.3,-0.5 -0.5,-1.1 -0.7,-1.7c-2.6,-7.8 1.6,-16.3 9.5,-18.9c6.4,-2.1 13.1,0.2 16.9,5.3c0.6,0.8 1.1,1.7 1.6,2.6c0.2,0.5 0.4,1 0.6,1.6z" fill="#0b80b2"></path><g><path d="M218.6,144.9c0,-1.32548 1.07452,-2.4 2.4,-2.4c1.32548,0 2.4,1.07452 2.4,2.4c0,1.32548 -1.07452,2.4 -2.4,2.4c-1.32548,0 -2.4,-1.07452 -2.4,-2.4z" fill="#ef596f"></path><path d="M223.8,144.8c0,1.1 -0.6,2.1 -1.7,2.6c-1.5,0.6 -3.2,-0.1 -3.8,-1.5c-0.3,-0.7 -0.3,-1.5 0,-2.2c0.1,-0.2 0.2,-0.3 0.3,-0.5c0.4,-0.4 0.8,-0.8 1.3,-1c0.3,-0.1 0.7,-0.2 1.1,-0.2c0.3,0 0.7,0.1 1,0.1c0.4,0.2 0.8,0.5 1.1,0.8c0.2,0.3 0.4,0.5 0.5,0.8c0.1,0.4 0.2,0.8 0.2,1.1zM221.8,146.7c0.7,-0.3 1.2,-1 1.2,-1.8c0,-0.3 -0.1,-0.5 -0.2,-0.8c-0.2,-0.4 -0.5,-0.8 -0.9,-1c-0.1,0 -0.1,-0.1 -0.2,-0.1c-0.5,-0.2 -1,-0.2 -1.5,0c-0.2,0.1 -0.3,0.1 -0.4,0.2c-0.3,0.2 -0.6,0.5 -0.7,0.9c-0.2,0.5 -0.2,1 0,1.5c0.2,0.5 0.6,0.9 1.1,1.1c0.5,0.2 1.1,0.2 1.6,0z" fill="#112c4f"></path></g><g fill="#112c4f"><path d="M228.5,145.9c-0.2,-0.6 -1.1,-1.9 -1.1,-1.9c3.7,-1 5,1.5 5.2,2.1c0.4,1.2 -0.2,2.4 -1.3,2.8c-1.1,0.4 -2.2,0.6 -2.6,-0.5c0,-1 0,-1.2 -0.2,-2.5z"></path></g><g fill="#112c4f"><path d="M217.5,153c0.6,1 -0.3,1.7 -1.3,2.3c-1.1,0.6 -2.4,0.2 -3,-0.8c-0.3,-0.6 -1.4,-3.2 1.7,-5.3c0,0 0.4,1.6 0.8,2.1c0.8,1 1,1.2 1.8,1.7z"></path></g><path d="M236.4,167.8c-0.5,0.2 -1,0.5 -1.5,0.7v0c-0.2,0.1 -0.4,0.2 -0.6,0.2v0c-8.4,3.6 -18,0.1 -22.1,-7.9c-0.2,-0.3 -0.3,-0.6 -0.4,-0.9c0,0 0,-0.1 -0.1,-0.1c-0.4,-0.9 -0.5,-2 -0.2,-2.9c0,-0.2 0.1,-0.3 0.2,-0.5c0,-0.1 0.1,-0.2 0.1,-0.2c0,-0.1 0.1,-0.1 0.1,-0.2c0,-0.1 0.1,-0.1 0.1,-0.2c0,-0.1 0.1,-0.1 0.1,-0.2c0,0 0,-0.1 0.1,-0.1c0,-0.1 0.1,-0.1 0.1,-0.2c0,0 0,-0.1 0.1,-0.1c0.1,-0.1 0.1,-0.1 0.2,-0.2c0.1,-0.1 0.1,-0.1 0.2,-0.2c0.1,-0.1 0.1,-0.1 0.2,-0.2v0c0.1,-0.1 0.2,-0.1 0.2,-0.2c0.1,0 0.1,-0.1 0.2,-0.1c0.2,-0.1 0.4,-0.3 0.7,-0.4l3,-1.3v0l0.9,-0.4v0l10.7,-4.6l3.9,-1.7l4.9,-2.1c1.7,-0.7 3.8,-1.3 5.2,-0.6c0.5,0.2 0.8,0.6 1.1,1.2c0,0 2.5,-2.1 2.6,-2.2v0v0.1c0.2,0.5 0.4,1.1 0.6,1.6c2.7,9.6 -1.3,19.3 -10.6,23.9z" fill="#0b80b2"></path><g fill="#70c4e8"><path d="M246.9,144.2c-0.1,0.2 -0.2,0.3 -0.2,0.5c-0.7,1.2 -1.8,2.2 -3.1,2.8l-19.7,8.4l-0.9,0.4l-1.5,0.6l-9.2,3.9c-0.2,-0.3 -0.3,-0.6 -0.4,-0.9l8.8,-3.8l22.5,-9.6c1.7,-0.7 2.9,-2.2 3.2,-3.9v0c0.2,0.5 0.3,1 0.5,1.6z"></path></g><g fill="#70c4e8"><path d="M245.3,139.6c-0.4,1.5 -1.3,2.9 -2.7,3.9c-0.4,0.3 -0.8,0.5 -1.3,0.7l-29.8,12.7c0,-0.2 0.1,-0.3 0.2,-0.5c0.4,-1 1.2,-1.9 2.4,-2.4l4,-1.7v0l22.7,-9.7c2.3,-1 3.5,-3.3 3,-5.7c0.5,0.9 1.1,1.8 1.5,2.7z"></path></g><g fill="#70c4e8"><path d="M236.8,168.8c-0.1,0 -0.2,0.1 -0.3,0c-8.9,-1.7 -12.5,-9.9 -13.8,-13c-0.1,-0.3 0,-0.6 0.3,-0.7c0.3,-0.1 0.6,0 0.7,0.3c2.2,5 5.6,11 13.1,12.4c0.3,0.1 0.5,0.3 0.4,0.6c-0.1,0.2 -0.2,0.4 -0.4,0.4z"></path></g><path d="M218.9,139.6v0c2.6,-0.1 4.8,1.3 5,3.3v0v0c0,0.5 -0.5,0.9 -1.2,1v0l-7.1,0.4c-0.7,0 -1.2,-0.3 -1.3,-0.8v0v0c-0.1,-2.1 2,-3.8 4.6,-3.9z" fill="#112c4f"></path><g><path d="M230.6,139.7c0,-1.32548 1.07452,-2.4 2.4,-2.4c1.32548,0 2.4,1.07451 2.4,2.4c0,1.32548 -1.07452,2.4 -2.4,2.4c-1.32548,0 -2.4,-1.07452 -2.4,-2.4z" fill="#ef596f"></path><path d="M234.2,142.4v0c-1.5,0.6 -3.2,-0.1 -3.8,-1.5c-0.1,-0.3 -0.2,-0.6 -0.2,-0.9c0,-0.1 0,-0.2 0,-0.3c0,-0.3 0.1,-0.7 0.2,-1c0.3,-0.7 0.8,-1.3 1.5,-1.6c0.3,-0.1 0.7,-0.2 1.1,-0.2c0.2,0 0.3,0 0.5,0c0.1,0.1 0.3,0.1 0.5,0.2c0.7,0.3 1.3,0.8 1.6,1.5c0.6,1.4 0,3.1 -1.4,3.8zM233.8,141.6c0.5,-0.2 0.9,-0.6 1.1,-1.1c0.2,-0.5 0.2,-1 0,-1.5c-0.2,-0.5 -0.6,-0.9 -1.1,-1.1c-0.4,-0.1 -0.8,-0.2 -1.2,-0.1c-0.1,0 -0.3,0 -0.4,0.1c-0.5,0.2 -0.9,0.6 -1.1,1.1c-0.1,0.1 -0.1,0.1 -0.1,0.2c-0.1,0.4 -0.1,0.9 0.1,1.3c0.5,1 1.6,1.5 2.7,1.1z" fill="#112c4f"></path></g><path d="M229.9,134.9c1.9,-1.8 4.6,-2.1 5.9,-0.7v0v0c0.3,0.4 0.2,1 -0.3,1.5l-5.1,4.8v0c-0.5,0.5 -1.2,0.5 -1.5,0.2v0v0c-1.3,-1.4 -0.9,-4 1,-5.8z" fill="#112c4f"></path></g></g></g></svg>