<svg width="120" height="120" viewBox="0 0 120 120" fill="none" xmlns="http://www.w3.org/2000/svg">
<path d="M17.92 97.64C17.24 85 23.87 78.53 29.56 75.29C33.3207 73.2046 37.4632 71.8986 41.74 71.45L42.28 79C39.0624 79.3885 35.953 80.408 33.13 82C27.63 85.21 25.13 90.19 25.52 97.21L17.92 97.64Z" fill="#3F5BC6"></path>
<path d="M16.09 104.51C15.7107 104.51 15.347 104.359 15.0788 104.091C14.8107 103.823 14.66 103.459 14.66 103.08C14.6421 101.365 15.2254 99.6976 16.3087 98.3678C17.3919 97.0379 18.9067 96.1294 20.59 95.8C22.3451 95.4035 24.1836 95.6333 25.7871 96.4496C27.3906 97.266 28.6581 98.6175 29.37 100.27C29.4925 100.607 29.4837 100.978 29.3453 101.31C29.2069 101.641 28.949 101.908 28.6229 102.057C28.2968 102.207 27.9262 102.229 27.5849 102.118C27.2435 102.008 26.9562 101.773 26.78 101.46C26.3408 100.398 25.5392 99.5251 24.5176 98.9978C23.4959 98.4705 22.3205 98.3225 21.2 98.58C20.1544 98.7772 19.2115 99.3363 18.5368 100.159C17.8621 100.982 17.4986 102.016 17.51 103.08C17.5113 103.267 17.4756 103.453 17.4048 103.626C17.334 103.8 17.2296 103.958 17.0976 104.091C16.9657 104.223 16.8087 104.329 16.6357 104.401C16.4628 104.473 16.2773 104.51 16.09 104.51Z" fill="#3F5BC6"></path>
<path d="M32.87 82.18C32.59 82.35 32.31 82.53 32.05 82.71C31.2688 80.2593 30.0639 77.9645 28.49 75.93L29.32 75.44C30.8805 77.4669 32.0813 79.7467 32.87 82.18Z" fill="#2A49C0"></path>
<path d="M29.07 85.3C28.83 85.58 28.6 85.86 28.39 86.15C27.7319 84.6049 26.6546 83.2748 25.28 82.31C24.5231 81.7466 23.683 81.3046 22.79 81C23.0033 80.7267 23.2233 80.4667 23.45 80.22C24.3077 80.563 25.115 81.0205 25.85 81.58C27.2086 82.5411 28.3136 83.8176 29.07 85.3Z" fill="#2A49C0"></path>
<path d="M26.17 90.66C26.06 91 25.98 91.35 25.9 91.66C24.0076 89.7877 21.5438 88.6016 18.9 88.29C18.99 87.97 19.09 87.67 19.19 87.37C21.7939 87.7422 24.2257 88.8884 26.17 90.66Z" fill="#2A49C0"></path>
<path d="M17.82 97C17.8426 96.9916 17.8674 96.9916 17.89 97H17.82Z" fill="white"></path>
<path d="M25.5 95.23C25.5 95.55 25.5 95.86 25.5 96.23C25.309 96.1794 25.1154 96.1394 24.92 96.11C22.5536 95.62 20.0915 95.9295 17.92 96.99C17.92 96.64 17.92 96.28 17.92 95.93C20.3098 94.9037 22.9627 94.6587 25.5 95.23Z" fill="#2A49C0"></path>
<path d="M102.08 97.64C102.76 85.03 96.08 78.53 90.44 75.29C86.6793 73.2046 82.5368 71.8986 78.26 71.45L77.72 79C80.9376 79.3885 84.047 80.408 86.87 82C92.37 85.21 94.87 90.19 94.48 97.21L102.08 97.64Z" fill="#3F5BC6"></path>
<path d="M103.91 104.51C104.098 104.51 104.284 104.473 104.457 104.401C104.631 104.329 104.788 104.224 104.921 104.091C105.054 103.958 105.159 103.801 105.231 103.627C105.303 103.454 105.34 103.268 105.34 103.08C105.358 101.365 104.775 99.6976 103.691 98.3678C102.608 97.0379 101.093 96.1294 99.41 95.8C97.6549 95.4035 95.8164 95.6333 94.2129 96.4496C92.6094 97.266 91.3419 98.6175 90.63 100.27C90.5075 100.607 90.5163 100.978 90.6547 101.31C90.7932 101.641 91.051 101.908 91.3771 102.057C91.7032 102.207 92.0738 102.229 92.4151 102.118C92.7565 102.008 93.0438 101.773 93.22 101.46C93.6592 100.398 94.4608 99.5251 95.4824 98.9978C96.5041 98.4705 97.6795 98.3225 98.8 98.58C99.8456 98.7772 100.788 99.3363 101.463 100.159C102.138 100.982 102.501 102.016 102.49 103.08C102.489 103.267 102.524 103.453 102.595 103.626C102.666 103.8 102.77 103.958 102.902 104.091C103.034 104.223 103.191 104.329 103.364 104.401C103.537 104.473 103.723 104.51 103.91 104.51Z" fill="#3F5BC6"></path>
<path d="M87.13 82.18C87.41 82.35 87.69 82.53 87.95 82.71C88.7312 80.2593 89.9361 77.9645 91.51 75.93L90.68 75.44C89.1195 77.4669 87.9187 79.7467 87.13 82.18Z" fill="#2A49C0"></path>
<path d="M90.93 85.3C91.17 85.58 91.4 85.86 91.61 86.15C92.2681 84.6049 93.3454 83.2748 94.72 82.31C95.4769 81.7466 96.317 81.3046 97.21 81C97.0033 80.7267 96.7833 80.4667 96.55 80.22C94.1391 81.2174 92.1516 83.0246 90.93 85.33V85.3Z" fill="#2A49C0"></path>
<path d="M93.83 90.66C93.94 91 94.02 91.35 94.1 91.66C95.9924 89.7877 98.4562 88.6016 101.1 88.29C101.01 87.97 100.91 87.67 100.81 87.37C98.2061 87.7422 95.7743 88.8884 93.83 90.66Z" fill="#2A49C0"></path>
<path d="M102.18 97C102.157 96.9916 102.133 96.9916 102.11 97H102.18Z" fill="white"></path>
<path d="M94.5 95.23C94.5 95.55 94.5 95.86 94.5 96.23C94.691 96.1794 94.8846 96.1394 95.08 96.11C97.4464 95.62 99.9085 95.9295 102.08 96.99C102.08 96.64 102.08 96.28 102.08 95.93C99.6902 94.9037 97.0373 94.6587 94.5 95.23Z" fill="#2A49C0"></path>
<path d="M60 115.72C66.6992 115.72 72.13 110.289 72.13 103.59C72.13 96.8908 66.6992 91.46 60 91.46C53.3008 91.46 47.87 96.8908 47.87 103.59C47.87 110.289 53.3008 115.72 60 115.72Z" fill="#00BDD1"></path>
<path d="M60 108.47C74.619 108.47 86.47 96.619 86.47 82C86.47 67.381 74.619 55.53 60 55.53C45.381 55.53 33.53 67.381 33.53 82C33.53 96.619 45.381 108.47 60 108.47Z" fill="#CFFDFF"></path>
<path d="M84.87 72.94C83.0107 67.8379 79.6271 63.4311 75.1782 60.3173C70.7293 57.2035 65.4303 55.5333 60 55.5333C54.5697 55.5333 49.2707 57.2035 44.8218 60.3173C40.3729 63.4311 36.9893 67.8379 35.13 72.94C34.5053 74.6521 34.0629 76.4252 33.81 78.23C39.84 85 49.32 88.66 60 88.66C70.68 88.66 80.16 85 86.19 78.23C85.9371 76.4252 85.4947 74.6521 84.87 72.94Z" fill="#80DBFF"></path>
<path d="M61.42 6.72H58.57V27.18H61.42V6.72Z" fill="#2A49C0"></path>
<path d="M60 12.95C62.3914 12.95 64.33 11.0114 64.33 8.61999C64.33 6.2286 62.3914 4.28999 60 4.28999C57.6086 4.28999 55.67 6.2286 55.67 8.61999C55.67 11.0114 57.6086 12.95 60 12.95Z" fill="#3F5BC6"></path>
<path d="M91.18 35.6H28.83C25.0579 35.6 22 38.6579 22 42.43V48.7C22 52.4721 25.0579 55.53 28.83 55.53H91.18C94.9521 55.53 98.01 52.4721 98.01 48.7V42.43C98.01 38.6579 94.9521 35.6 91.18 35.6Z" fill="#00BDD1"></path>
<path d="M93 53C93 71.23 78.23 82 60 82C41.77 82 27 71.23 27 53C27 34.77 44.5 20 60 20C74.23 20 93 34.78 93 53Z" fill="#CFFDFF"></path>
<path d="M86.47 52.44C86.47 65.59 74.62 73.36 60 73.36C45.38 73.36 33.53 65.59 33.53 52.44C33.53 39.29 47.53 28.64 60 28.64C71.42 28.64 86.47 39.3 86.47 52.44Z" fill="#3F0082"></path>
<path d="M41.54 46.49C45.16 45.68 49.44 47.85 50.68 51.06" stroke="#00D9E8" stroke-width="1.41" stroke-miterlimit="10" stroke-linecap="round"></path>
<path d="M78.46 46.49C74.84 45.68 70.56 47.85 69.32 51.06" stroke="#00D9E8" stroke-width="1.41" stroke-miterlimit="10" stroke-linecap="round"></path>
<path d="M65.1 55.73C65.1 57.0826 64.5627 58.3798 63.6062 59.3362C62.6498 60.2927 61.3526 60.83 60 60.83C58.6474 60.83 57.3502 60.2927 56.3938 59.3362C55.4373 58.3798 54.9 57.0826 54.9 55.73C54.9 52.92 65.1 52.92 65.1 55.73Z" fill="#00D9E8"></path>
<path d="M60 26.21C62.7283 26.21 64.94 23.9983 64.94 21.27C64.94 18.5417 62.7283 16.33 60 16.33C57.2717 16.33 55.06 18.5417 55.06 21.27C55.06 23.9983 57.2717 26.21 60 26.21Z" fill="#CFFDFF"></path>
<path d="M60 103.37C63.4794 103.37 66.3 100.549 66.3 97.07C66.3 93.5906 63.4794 90.77 60 90.77C56.5206 90.77 53.7 93.5906 53.7 97.07C53.7 100.549 56.5206 103.37 60 103.37Z" fill="#80DBFF"></path>
<path d="M61.42 82.71H58.57V108.47H61.42V82.71Z" fill="#80DBFF"></path>
<path d="M60 100.77C62.0435 100.77 63.7 99.1135 63.7 97.07C63.7 95.0265 62.0435 93.37 60 93.37C57.9566 93.37 56.3 95.0265 56.3 97.07C56.3 99.1135 57.9566 100.77 60 100.77Z" fill="#B9F9FF"></path>
</svg>
